<svg width="670" height="101" viewBox="0 0 670 101" fill="none" xmlns="http://www.w3.org/2000/svg">
<path d="M424.203 29.6355C416.767 29.6355 411.147 32.6698 408.348 37.2426C405.527 32.6698 399.373 29.6355 392.962 29.6355C380.355 29.6355 373.923 37.6059 373.923 47.4993V71.2181H385.697V49.1661C385.697 44.4651 388.197 40.2769 393.881 40.2769C399.565 40.2769 402.535 44.2727 402.535 48.9951V71.2181H414.352V48.9951C414.352 44.2514 417.13 40.2769 422.792 40.2769C428.455 40.2769 431.147 44.4651 431.147 49.1661V71.2181H442.921V47.4993C442.921 37.6059 436.853 29.6355 424.203 29.6355Z" fill="white"></path>
<path d="M495.401 56.9015V30.4262H483.756L483.841 36.8581C481.298 33.0759 476.854 29.6356 468.947 29.6356C455.357 29.6356 448.37 40.1915 448.37 50.7902C448.113 61.517 456.02 72.1798 468.371 72.1798C474.909 72.1798 480.892 69.2737 483.756 64.1667C484.91 67.5429 487.837 71.2396 493.906 71.2396H500.637V61.3461H498.756C496.384 61.3461 495.38 60.47 495.38 56.9015M471.383 61.9658C464.695 61.9658 459.695 57.3502 459.695 50.8757C459.695 44.4011 464.695 39.9565 471.383 39.9565C478.072 39.9565 483.286 44.4866 483.286 50.8757C483.286 57.2648 478.285 61.9658 471.383 61.9658Z" fill="white"></path>
<path d="M508.137 44.3369V71.2182H519.911V53.1834C519.911 46.196 524.976 41.7086 531.429 41.7086H539.121V29.5715H533.352C526.236 29.5715 521.044 35.6401 519.911 39.1658V30.4048H508.137V44.3156V44.3369Z" fill="white"></path>
<path d="M546.087 71.2181H557.861V51.2388L576.152 71.2181H590.041L571.088 50.2559L588.588 30.4262H574.742L557.861 49.5508V17.7975H546.087V71.2181Z" fill="white"></path>
<path d="M603.824 54.0167C603.824 58.504 606.154 63.0341 613.675 63.0341C620.577 63.0341 621.581 58.8886 621.581 58.8886H634.509C634.509 58.8886 633.313 72.1797 613.675 72.1797C599.999 72.1797 591.431 64.5298 591.431 50.8755C591.431 37.2212 599.999 29.6355 613.547 29.6355C627.094 29.6355 635.513 37.1999 635.513 50.8755C635.513 52.3713 635.257 54.038 635.257 54.038H603.824V54.0167ZM603.995 46.8369H622.949C622.949 43.5035 621.026 38.7811 613.547 38.7811C606.068 38.7811 603.974 43.5249 603.974 46.8369" fill="white"></path>
<path d="M662.373 60.9827C658.334 60.9827 656.881 59.1878 656.881 53.5039V39.123H669.638V29.6569H656.881V21.5156H650.514L639.167 32.3707V39.1444H645.107V55.0637C645.107 66.4957 650.685 71.3036 662.373 71.3036H669.66V61.0041H662.373V60.9827Z" fill="white"></path>
<circle cx="50.2154" cy="50.4483" r="50.2154" fill="#FFFF00"></circle>
<path d="M13.1222 56.7069C11.0901 45.1517 10.074 39.3741 11.4371 34.5398C12.7811 29.7736 15.6935 25.6033 19.7009 22.707C23.7656 19.7692 29.5282 18.7505 41.0533 16.713L46.6989 15.7149C58.224 13.6774 63.9865 12.6586 68.8083 14.0254C73.562 15.3729 77.7214 18.2929 80.6102 22.3108C83.5403 26.3861 84.5564 32.1637 86.5886 43.719C88.6207 55.2742 89.6368 61.0518 88.2736 65.8862C86.9297 70.6523 84.0173 74.8226 80.0099 77.7189C75.9451 80.6567 70.1826 81.6755 58.6575 83.713L53.0119 84.711C41.4868 86.7485 35.7243 87.7673 30.9025 86.4005C26.1488 85.0531 21.9894 82.133 19.1006 78.1151C16.1705 74.0398 15.1544 68.2622 13.1222 56.7069Z" fill="#7000FF"></path>
<path d="M63.9919 34.6523C65.5067 34.9867 66.9728 35.2723 68.4112 35.6415C69.9398 36.0317 71.4546 36.5054 72.9694 36.9304C73.1848 36.9931 73.2681 37.0767 73.2681 37.3205C73.2612 42.0648 73.3098 46.816 73.2473 51.5603C73.1778 56.6599 71.5727 61.2718 68.4806 65.3264C65.0342 69.8477 60.5247 72.7598 55.0076 74.0834C52.8327 74.6059 50.6162 74.7801 48.3857 74.6477C43.084 74.3342 38.3869 72.4602 34.3706 68.9839C30.2294 65.41 27.6167 60.9095 26.5675 55.5174C26.2687 53.9847 26.1506 52.4311 26.1506 50.8706C26.1437 46.3771 26.1506 41.8906 26.1367 37.3971C26.1367 37.0976 26.234 36.9931 26.505 36.9095C29.3955 35.9829 32.3417 35.2514 35.3226 34.708C35.3504 34.7011 35.3782 34.708 35.4477 34.701C35.4477 34.8195 35.4477 34.9379 35.4477 35.0494C35.4477 40.6854 35.4268 46.3284 35.4616 51.9644C35.4824 54.8068 35.8646 57.6143 36.8304 60.3104C37.5947 62.4492 38.7273 64.358 40.4158 65.9046C42.0001 67.3467 43.8553 68.2593 45.9329 68.7052C48.8721 69.3392 51.8043 69.2904 54.688 68.3778C58.0927 67.3049 60.4552 65.0338 61.9699 61.8361C62.7829 60.1293 63.2693 58.3179 63.575 56.4579C63.9155 54.3888 63.9989 52.2988 63.9989 50.2088C63.9989 45.1789 63.9989 40.142 63.9989 35.1121C63.9919 34.9797 63.9919 34.8543 63.9919 34.6523Z" fill="white"></path>
<path d="M53.8409 45.1027C51.0685 45.1027 48.3238 45.1027 45.5653 45.1027C45.5653 38.6238 45.5653 32.1518 45.5653 25.6867C46.4269 25.415 52.2011 25.3941 53.8409 25.6658C53.8409 32.1448 53.8409 38.6238 53.8409 45.1027Z" fill="white"></path>
<path d="M260.65 51.6022C260.65 58.0554 256.996 61.0469 251.568 61.0469C246.141 61.0469 242.615 58.1195 242.615 51.6022V30.2767H230.905V52.0082C230.905 66.1753 242.743 71.7097 251.654 71.7097C260.565 71.7097 272.424 66.154 272.424 52.0082V30.2767H260.714L260.65 51.6022Z" fill="white"></path>
<path d="M220.991 40.1702V30.2767H182.912V40.1702H205.456L182.015 61.0683V70.9618H222.422V61.0683H197.592L220.991 40.1702Z" fill="white"></path>
<path d="M331.058 29.5074C323.643 29.5074 318.045 32.5204 315.267 37.1145C312.446 32.5204 306.314 29.5074 299.946 29.5074C287.424 29.5074 280.907 37.4778 280.907 47.3499V70.9832H292.617V49.0167C292.617 44.2943 295.095 40.1488 300.779 40.1488C301.933 40.0847 303.087 40.2557 304.177 40.6617C305.267 41.0677 306.25 41.7087 307.062 42.5421C307.874 43.3541 308.515 44.3584 308.921 45.4482C309.327 46.5379 309.498 47.6918 309.433 48.8457V70.9832H321.143V48.8243C321.143 44.102 323.921 40.1275 329.541 40.1275C335.161 40.1275 337.875 44.2729 337.875 48.9953V70.9618H349.584V47.3713C349.584 37.5205 343.537 29.5288 330.951 29.5288H331.058V29.5074Z" fill="white"></path>
<path d="M162.591 51.6022C162.591 58.0554 158.937 61.0469 153.552 61.0469C148.167 61.0469 144.556 58.1195 144.556 51.6022V30.2767H132.846V52.0082C132.846 66.1753 144.641 71.7097 153.595 71.7097C162.548 71.7097 174.322 66.154 174.322 52.0082V30.2767H162.612V51.6022H162.591Z" fill="white"></path>
</svg>