<svg width="297" height="93" viewBox="0 0 297 93" fill="none" xmlns="http://www.w3.org/2000/svg">
<circle cx="46" cy="46.2329" r="46" fill="#FFFF00"></circle>
<path d="M12.0201 51.9662C10.1585 41.381 9.22768 36.0884 10.4764 31.6599C11.7076 27.2938 14.3755 23.4736 18.0465 20.8204C21.77 18.1292 27.0488 17.196 37.6064 15.3295L42.7781 14.4152C53.3357 12.5488 58.6145 11.6156 63.0315 12.8676C67.3862 14.1019 71.1964 16.7769 73.8427 20.4575C76.5268 24.1907 77.4576 29.4833 79.3192 40.0685C81.1808 50.6537 82.1116 55.9463 80.8629 60.3749C79.6317 64.7409 76.9638 68.5611 73.2928 71.2143C69.5693 73.9055 64.2905 74.8387 53.7329 76.7052L48.5612 77.6195C38.0036 79.4859 32.7248 80.4191 28.3078 79.1671C23.9531 77.9328 20.1429 75.2579 17.4966 71.5773C14.8125 67.844 13.8817 62.5514 12.0201 51.9662Z" fill="#7000FF"></path>
<path d="M58.6203 31.7629C60.0079 32.0692 61.351 32.3309 62.6686 32.6691C64.0689 33.0265 65.4565 33.4604 66.8441 33.8497C67.0414 33.9072 67.1178 33.9838 67.1178 34.2071C67.1114 38.5531 67.156 42.9055 67.0987 47.2515C67.0351 51.923 65.5647 56.1478 62.7322 59.862C59.5751 64.0038 55.4441 66.6714 50.3901 67.884C48.3978 68.3626 46.3674 68.5221 44.3241 68.4009C39.4675 68.1137 35.1647 66.397 31.4856 63.2125C27.692 59.9386 25.2987 55.8159 24.3375 50.8764C24.0638 49.4724 23.9556 48.0493 23.9556 46.6197C23.9492 42.5035 23.9556 38.3936 23.9429 34.2773C23.9429 34.0029 24.032 33.9072 24.2802 33.8306C26.9281 32.9818 29.627 32.3117 32.3576 31.8139C32.3831 31.8076 32.4085 31.8139 32.4722 31.8076C32.4722 31.916 32.4722 32.0245 32.4722 32.1266C32.4722 37.2895 32.4531 42.4588 32.4849 47.6217C32.504 50.2255 32.8541 52.7973 33.7389 55.2671C34.439 57.2263 35.4766 58.9749 37.0233 60.3917C38.4746 61.7127 40.1741 62.5488 42.0772 62.9572C44.7697 63.5379 47.4558 63.4933 50.0973 62.6572C53.2163 61.6744 55.3804 59.594 56.768 56.6647C57.5128 55.1012 57.9583 53.4419 58.2384 51.738C58.5503 49.8426 58.6267 47.928 58.6267 46.0135C58.6267 41.4058 58.6267 36.7917 58.6267 32.1841C58.6203 32.0628 58.6203 31.948 58.6203 31.7629Z" fill="white"></path>
<path d="M49.3208 41.3361C46.7811 41.3361 44.2668 41.3361 41.7399 41.3361C41.7399 35.401 41.7399 29.4723 41.7399 23.55C42.5291 23.3011 47.8186 23.2819 49.3208 23.5308C49.3208 29.4659 49.3208 35.401 49.3208 41.3361Z" fill="white"></path>
<path d="M148.741 53.5989C144.251 53.5989 140.857 55.4262 139.173 58.1932C137.464 55.4393 133.757 53.5989 129.881 53.5989C122.271 53.5989 118.382 58.4151 118.382 64.3798V78.6977H125.482V65.3848C125.482 62.5525 126.983 60.0205 130.429 60.0205C133.874 60.0205 135.649 62.422 135.649 65.2934V78.7108H142.776V65.2804C142.776 62.422 144.46 60.0074 147.866 60.0074C151.299 60.0074 152.917 62.5395 152.917 65.3717V78.6847H160.017V64.3798C160.043 58.4151 156.376 53.5989 148.741 53.5989Z" fill="#7000FF"></path>
<path d="M191.733 70.0443V54.0688H184.698L184.75 57.9583C183.223 55.6742 180.534 53.5989 175.757 53.5989C167.548 53.5989 163.332 59.9683 163.332 66.3637C163.175 72.8374 167.952 79.285 175.405 79.285C179.347 79.285 182.962 77.5361 184.698 74.4428C185.403 76.4789 187.165 78.7108 190.819 78.7108H194.891V72.746H193.756C192.333 72.733 191.733 72.1979 191.733 70.0443ZM177.245 73.1115C173.199 73.1115 170.197 70.3315 170.197 66.4159C170.197 62.5525 173.212 59.8247 177.245 59.8247C181.409 59.8247 184.424 62.5525 184.424 66.4159C184.424 70.3184 181.409 73.1115 177.245 73.1115Z" fill="#7000FF"></path>
<path d="M199.421 62.4752V78.6987H206.521V67.8135C206.521 63.5977 209.589 60.896 213.478 60.896H218.125V53.5739H214.64C210.346 53.5739 207.213 57.2284 206.535 59.3689V58.6119V54.0698H199.434V62.4752H199.421Z" fill="#7000FF"></path>
<path d="M222.327 78.6987H229.427V66.6388L240.469 78.6987H248.862L237.415 66.0384L247.974 54.0698H239.621L229.427 65.6077V46.4475H222.327V78.6987Z" fill="#7000FF"></path>
<path d="M257.176 68.3215C257.176 71.0363 258.585 73.7641 263.127 73.7641C267.291 73.7641 267.891 71.2581 267.891 71.2581H275.696C275.696 71.2581 274.965 79.285 263.114 79.285C254.852 79.285 249.684 74.6647 249.684 66.4159C249.684 58.1671 254.852 53.5989 263.036 53.5989C271.089 53.5989 276.297 58.1671 276.297 66.4159C276.297 67.3165 276.14 68.3215 276.14 68.3215H257.176ZM257.267 63.9752H268.714C268.714 61.9652 267.552 59.1068 263.036 59.1068C258.572 59.1068 257.267 61.9782 257.267 63.9752Z" fill="#7000FF"></path>
<path d="M292.521 72.5251C290.093 72.5251 289.206 71.4418 289.206 68.0091V59.3296H296.906V53.6129H289.206V48.6924H285.368L278.516 55.2444V59.3296H282.105V68.9358C282.105 75.8272 285.473 78.7378 292.521 78.7378H296.919V72.512H292.521V72.5251Z" fill="#7000FF"></path>
<path d="M197.92 27.1335C197.92 31.1535 195.649 33.0069 192.269 33.0069C188.888 33.0069 186.696 31.1796 186.696 27.1335V13.8597H179.4V27.3815C179.4 36.1915 186.774 39.6503 192.308 39.6503C197.842 39.6503 205.229 36.1915 205.229 27.3815V13.8597H197.933L197.92 27.1335Z" fill="#7000FF"></path>
<path d="M173.252 20.0202V13.8597H149.563V20.0202H163.58L148.988 33.0199V39.1804H174.126V33.0199H158.686L173.252 20.0202Z" fill="#7000FF"></path>
<path d="M241.735 13.3754C237.115 13.3754 233.63 15.2548 231.907 18.1132C230.145 15.2548 226.334 13.3754 222.366 13.3754C214.574 13.3754 210.515 18.3351 210.515 24.4695V39.1789H217.811V25.5136C217.811 22.5769 219.351 20.0057 222.888 20.0057C223.606 19.9666 224.337 20.071 225.003 20.332C225.681 20.5931 226.295 20.9846 226.804 21.4936C227.313 22.0027 227.704 22.6161 227.966 23.2948C228.214 23.9735 228.331 24.6913 228.279 25.4092V39.192H235.575V25.4092C235.575 22.4725 237.311 19.9927 240.809 19.9927C244.306 19.9927 245.99 22.5769 245.99 25.5006V39.1659H253.286V24.4956C253.286 18.3612 249.527 13.4015 241.683 13.4015L241.735 13.3754Z" fill="#7000FF"></path>
<path d="M136.902 27.1335C136.902 31.1535 134.631 33.0069 131.277 33.0069C127.923 33.0069 125.678 31.1796 125.678 27.1335V13.8597H118.382V27.3815C118.382 36.1915 125.73 39.6503 131.29 39.6503C136.863 39.6503 144.185 36.1915 144.185 27.3815V13.8597H136.889L136.902 27.1335Z" fill="#7000FF"></path>
</svg>